<svg xmlns="http://www.w3.org/2000/svg" fill="none" viewBox="0 0 242 242"><g clip-path="url(#a)"><path fill="#1D1D1B" d="M121 242c66.827 0 121-54.174 121-121S187.827 0 121 0C54.174 0 0 54.174 0 121s54.174 121 121 121Z"/><path fill="#215733" d="M121 240c65.722 0 119-53.278 119-119C240 55.278 186.722 2 121 2 55.278 2 2 55.278 2 121c0 65.722 53.278 119 119 119Z"/><path stroke="#fff" stroke-miterlimit="10" stroke-width="8" d="M121.14 113.34v81.31M79.33 63.3v114.07m86-109.69v109.69"/></g><defs><clipPath id="a"><path fill="#fff" d="M0 0h242v242H0z"/></clipPath></defs></svg>