<svg xmlns="http://www.w3.org/2000/svg" fill="none" viewBox="0 0 964 323"><g clip-path="url(#a)"><mask id="b" width="964" height="323" x="0" y="0" maskUnits="userSpaceOnUse" style="mask-type:luminance"><path fill="#fff" d="M0 0h964v323H0V0Z"/></mask><g mask="url(#b)"><path fill="#1D1D1B" d="m123.63 122-9.95 8.17a55.518 55.518 0 0 0-19.78-17.4 54.729 54.729 0 0 0-25.36-5.92 53.113 53.113 0 0 0-28 7.76 53.857 53.857 0 0 0-20 20.84 60.91 60.91 0 0 0-7.07 29.42c0 16.473 5.277 30.217 15.83 41.23 10.553 11.013 23.867 16.523 39.94 16.53 17.68 0 32.47-7.407 44.37-22.22l9.95 8.08a64.417 64.417 0 0 1-23.55 19.87 69.732 69.732 0 0 1-31.54 7c-22.08 0-39.5-7.867-52.26-23.6-10.7-13.28-16.033-29.317-16-48.11 0-19.773 6.48-36.407 19.44-49.9 12.96-13.493 29.194-20.243 48.7-20.25a67.59 67.59 0 0 1 31.94 7.5 63.154 63.154 0 0 1 23.34 21ZM155.4 0H168v232h-12.6V0Zm40.18 97h13.73l41.84 104.3L293.67 97h13.73l-54.92 135h-2.75L195.58 97Zm139.47 0h12.61v225.6h-12.61V97Zm37.26 13.17V97h69.17v13.22h-28.15V232h-12.87V110.17h-28.15ZM519.5 97l58.86 135h-13.62l-19.85-44.44h-54.38L470.84 232h-14.07l59.64-135h3.09Zm-1.59 28.7-21.63 48.89h43.15l-21.52-48.89Zm75.24 81.15 10.72-6.85c7.553 14.853 16.263 22.28 26.13 22.28 4.21.024 8.351-1.07 12-3.17a21.615 21.615 0 0 0 8.5-8.49 23.242 23.242 0 0 0 2.92-11.29 23.93 23.93 0 0 0-4.3-13.32c-3.94-6-11.147-13.223-21.62-21.67-10.473-8.447-17.023-14.597-19.65-18.45a35.306 35.306 0 0 1-6.69-20.66 33.074 33.074 0 0 1 3.94-16.07 29.163 29.163 0 0 1 11.12-11.43 30.388 30.388 0 0 1 15.57-4.18 31.558 31.558 0 0 1 16.69 4.73c5.18 3.16 10.657 8.96 16.43 17.4L654.59 124c-4.747-6.74-8.797-11.18-12.15-13.32a19.881 19.881 0 0 0-10.94-3.21 16.765 16.765 0 0 0-17.33 17.17 21.992 21.992 0 0 0 1.72 8.54 31.587 31.587 0 0 0 6.26 9c1.66 1.707 7.093 6.203 16.3 13.49 10.927 8.627 18.423 16.293 22.49 23a39.01 39.01 0 0 1 6.06 20.38 35.602 35.602 0 0 1-10.43 25.52 33.86 33.86 0 0 1-25.35 10.84 35.472 35.472 0 0 1-20.86-6.57c-6.24-4.367-11.977-11.697-17.21-21.99ZM843 287c66.827 0 121-54.174 121-121S909.827 45 843 45c-66.826 0-121 54.174-121 121s54.174 121 121 121Z"/><path fill="#215733" d="M843 285c65.722 0 119-53.278 119-119 0-65.722-53.278-119-119-119-65.722 0-119 53.278-119 119 0 65.722 53.278 119 119 119Z"/><path fill="#fff" fill-rule="evenodd" d="M797.33 222.37V108.3h8v114.07h-8Zm86 0V112.68h8v109.69h-8Zm-44.19 17.28v-81.31h8v81.31h-8Z" clip-rule="evenodd"/></g></g><defs><clipPath id="a"><path fill="#fff" d="M0 0h964v323H0z"/></clipPath></defs></svg>